<?xml version="1.0" encoding="utf-8"?>
<!-- Generator: Adobe Illustrator 22.0.1, SVG Export Plug-In . SVG Version: 6.00 Build 0)  -->
<svg version="1.1" id="Vrstva_1" xmlns:serif="http://www.serif.com/"
	 xmlns="http://www.w3.org/2000/svg" xmlns:xlink="http://www.w3.org/1999/xlink" x="0px" y="0px" viewBox="0 0 100 100"
	 style="enable-background:new 0 0 100 100;" xml:space="preserve">
<g>
	<path d="M11.4,93.3c-0.1,0-0.1,0-0.2,0c-1.3-0.1-2.2-1.2-2.1-2.4c1.3-19.1,19.3-34,40.9-34c21.6,0,39.6,14.9,40.9,33.9
		c0.1,1.3-0.9,2.3-2.1,2.4c-1.3,0.1-2.3-0.9-2.4-2.1C85.2,74.4,69.2,61.4,50,61.4c-19.3,0-35.3,13.1-36.4,29.8
		C13.5,92.4,12.5,93.3,11.4,93.3z"/>
	<path d="M50,52.3c-12.6,0-22.8-10.2-22.8-22.8S37.4,6.7,50,6.7c12.6,0,22.8,10.2,22.8,22.8S62.6,52.3,50,52.3z M50,11.3
		c-10,0-18.2,8.2-18.2,18.2S40,47.7,50,47.7c10,0,18.2-8.2,18.2-18.2S60,11.3,50,11.3z"/>
</g>
</svg>
